<?xml version="1.0" encoding="UTF-8"?>
<!DOCTYPE svg PUBLIC "-//W3C//DTD SVG 1.1//EN" "http://www.w3.org/Graphics/SVG/1.1/DTD/svg11.dtd">
<!-- Creator: CorelDRAW 2020 (64-Bit) -->
<svg xmlns="http://www.w3.org/2000/svg" xml:space="preserve" width="55.2823mm" height="19.2315mm" version="1.1" style="shape-rendering:geometricPrecision; text-rendering:geometricPrecision; image-rendering:optimizeQuality; fill-rule:evenodd; clip-rule:evenodd"
viewBox="0 0 678.86 236.16"
 xmlns:xlink="http://www.w3.org/1999/xlink"
 xmlns:xodm="http://www.corel.com/coreldraw/odm/2003">
 <defs>
  <style type="text/css">
   <![CDATA[
    .fil0 {fill:#FEFEFE;fill-rule:nonzero}
   ]]>
  </style>
 </defs>
 <g id="Capa_x0020_1">
  <metadata id="CorelCorpID_0Corel-Layer"/>
  <g id="_2130299171696">
   <path class="fil0" d="M531.56 173.14c16.35,2.28 30.41,-8.74 36.49,-24.71 3.42,12.74 13.87,23.19 26.61,20.72 18.63,-3.61 20.53,-28.51 12.93,-37.82 -3.04,4.75 -11.78,2.66 -13.68,-10.07 -2.85,-19.2 0,-34.59 6.46,-39.16 -6.46,-7.6 -16.16,-10.26 -24.52,-6.65 -6.08,2.47 -9.12,7.03 -9.69,12.92 -4.18,-8.36 -17.11,-15.4 -33.07,-12.92 -40.68,6.65 -45.81,91.42 -1.52,97.7zm14.26 -81.73c7.98,-1.9 14.44,5.32 17.86,14.82l0.19 21.86c-2.66,10.45 -8.93,19.39 -15.97,19.39 -17.87,0 -21.29,-51.32 -2.09,-56.07z"/>
   <path class="fil0" d="M180.98 173.14c16.35,2.28 30.41,-8.74 36.49,-24.71 3.42,12.74 13.87,23.19 26.61,20.72 18.63,-3.61 20.53,-28.51 12.93,-37.82 -3.04,4.75 -11.78,2.66 -13.68,-10.07 -2.85,-19.2 0,-34.59 6.46,-39.16 -6.46,-7.6 -16.16,-10.26 -24.52,-6.65 -6.08,2.47 -9.12,7.03 -9.69,12.92 -4.18,-8.36 -17.11,-15.4 -33.07,-12.92 -40.68,6.65 -45.81,91.42 -1.52,97.7zm14.26 -81.73c7.98,-1.9 14.44,5.32 17.86,14.83l0.19 21.86c-2.66,10.45 -8.93,19.39 -15.97,19.39 -17.87,0 -21.29,-51.32 -2.09,-56.07z"/>
   <path class="fil0" d="M445.6 235.29c14.82,-3.32 27.21,-17.92 33.18,-28.53 9.07,2.43 16.59,6.41 30.75,12.61 54.41,23.89 76.31,-4.87 72.11,-34.06 -20.13,7.74 -57.73,-3.54 -95.33,-7.08 4.65,-40.04 -7.08,-86.93 3.76,-100.2 3.54,-4.2 7.96,-4.65 10.62,0.22 20.13,-25 -2.65,-57.51 -35.39,-42.47 -46.45,21.46 -7.74,92.02 -4.87,140.9 -15.48,0 -29.86,3.76 -40.04,12.39 -20.79,17.7 -5.53,53.09 25.22,46.23zm-3.98 -28.53c3.98,-2.65 12.39,-4.65 17.92,-4.65 -2.21,5.97 -7.3,11.28 -13.94,14.38 -7.74,3.54 -11.28,-4.65 -3.98,-9.73z"/>
   <path class="fil0" d="M347.51 174.66c18.63,3.99 35.16,-14.45 41.25,-25.09 0,12.35 6.84,24.52 26.23,22.62 23,-2.28 23.38,-22.62 18.82,-27.56 -6.08,3.04 -10.26,-2.28 -6.08,-28.32 7.79,-48.09 -34.02,-47.52 -42.96,-30.79 7.79,2.66 8.36,14.64 5.13,31.17 -5.32,15.2 -12.54,31.74 -22.81,28.51 -14.82,-4.75 6.84,-48.85 -6.46,-63.67 -9.31,-10.26 -29.27,-4.94 -35.73,5.7 13.3,5.7 -17.87,78.69 22.62,87.43z"/>
   <path class="fil0" d="M269.89 235.29c14.82,-3.32 27.21,-17.92 33.18,-28.53 9.07,2.43 16.59,6.41 30.75,12.61 54.41,23.89 76.31,-4.87 72.11,-34.06 -20.13,7.74 -57.73,-3.54 -95.33,-7.08 4.65,-40.04 -7.08,-86.93 3.76,-100.2 3.54,-4.2 7.96,-4.65 10.62,0.22 20.13,-25 -2.65,-57.51 -35.39,-42.47 -46.45,21.46 -7.74,92.02 -4.86,140.9 -15.48,0 -29.86,3.76 -40.04,12.39 -20.79,17.7 -5.53,53.09 25.22,46.23zm-3.98 -28.53c3.98,-2.65 12.39,-4.65 17.92,-4.65 -2.21,5.97 -7.3,11.28 -13.94,14.38 -7.74,3.54 -11.28,-4.65 -3.98,-9.73z"/>
   <path class="fil0" d="M15.35 207.42c12.39,4.42 25.66,-0.66 31.41,-8.4 -5.09,-4.65 -6.41,-18.58 -6.19,-36.28 0,-44.46 23.44,-90.66 43.13,-86.27 20.99,4.68 -1.4,88.31 18.82,123.05 26.28,45.17 106.55,32.51 99.72,-14.92 -12.93,6.27 -39.3,6.91 -55.51,-3.07 -40.49,-24.94 24.13,-144.61 -41.12,-146.86 -24.17,-0.83 -47.11,25.66 -58.84,48 5.09,-32.3 0.22,-49.33 -11.72,-53.75 -15.48,-5.75 -35.83,8.18 -31.19,25.88 6.85,2.65 10.62,9.29 2.87,60.39 -10.17,67.91 -9.95,85.6 8.63,92.24z"/>
  </g>
  <path class="fil0" d="M531.26 2.78l2.56 11.09c-2.17,-1.78 -4.92,-2.26 -7.77,-1.61 -5.89,1.36 -9.23,6.45 -7.81,12.61 1.42,6.15 6.67,9.3 12.56,7.95 2.96,-0.68 5.28,-2.42 6.39,-5.08l0.74 3.19 3.49 -0.81 -6.51 -28.19 -3.65 0.84zm-0.9 26.78c-3.88,0.9 -7.45,-1.24 -8.44,-5.53 -0.99,-4.29 1.3,-7.74 5.17,-8.64 3.84,-0.89 7.4,1.21 8.39,5.51 0.99,4.29 -1.29,7.78 -5.12,8.66zm17.95 -24.69c1.48,-0.11 2.44,-1.28 2.34,-2.68 -0.1,-1.32 -1.27,-2.29 -2.71,-2.18 -1.44,0.11 -2.44,1.28 -2.34,2.64 0.1,1.36 1.27,2.33 2.71,2.22zm0 24.71l3.73 -0.28 -1.57 -20.6 -3.73 0.28 1.57 20.61zm17.1 0.53c5.45,0.69 9.16,-1.23 9.63,-4.94 1.01,-7.97 -12.48,-5.68 -11.87,-10.52 0.21,-1.63 1.95,-2.62 5.19,-2.21 2.01,0.26 4.01,0.94 5.71,2.38l1.96 -2.74c-1.63,-1.39 -4.56,-2.47 -7.23,-2.81 -5.26,-0.67 -8.86,1.39 -9.33,5.07 -1.04,8.16 12.42,5.83 11.84,10.43 -0.22,1.73 -1.78,2.59 -5.23,2.16 -2.67,-0.34 -5.34,-1.58 -6.92,-3.04l-1.92 2.74c1.53,1.57 4.76,3.04 8.16,3.48zm23.33 1.76c-3.29,-1.11 -5.2,-3.49 -5.29,-6.52l16.57 2.23c1.87,-5.87 -1.03,-11.05 -6.39,-12.86 -5.69,-1.92 -11.23,0.85 -13.2,6.65 -1.98,5.84 0.82,11.43 7.14,13.57 3.25,1.1 6.32,0.9 8.76,-0.58l-1.15 -2.94c-1.98,1.1 -4.16,1.23 -6.45,0.45zm3.89 -14.16c3.18,1.08 4.83,3.86 4.51,6.88l-13.32 -1.87 0.13 -0.37c1.39,-4.1 4.96,-5.9 8.69,-4.63zm29.84 5.14c1.18,0.84 0.68,3.69 2.71,5.13 1.84,1.31 4.13,0.64 5.8,-1.57l-1.72 -1.22c-0.9,1.13 -2.05,1.41 -2.98,0.75 -1.18,-0.84 -0.66,-3.72 -2.69,-5.16 -1.84,-1.31 -4.13,-0.64 -5.87,1.66l1.72 1.22c0.94,-1.19 2.1,-1.47 3.02,-0.82zm-0.22 6.64c-2.67,-1.9 -5.53,-2.45 -7.99,-1.62l1.81 -2.54 -2.92 -2.08 -11.98 16.84 3.05 2.17 6.17 -8.67c2.6,-3.65 6.07,-4.1 9.31,-1.8 2.89,2.06 3.39,4.85 1.04,8.16l-6.64 9.34 3.05 2.17 6.89 -9.69c3.53,-4.96 2.3,-9.36 -1.79,-12.28zm5.96 33.67c4.06,4.69 10.35,5.22 15.01,1.19 4.66,-4.03 5,-10.31 0.94,-14.99 -4.06,-4.69 -10.34,-5.28 -15,-1.24 -4.66,4.03 -5,10.36 -0.94,15.05zm2.48 -2.15c-2.6,-3.01 -2.39,-7.16 0.94,-10.05 3.33,-2.88 7.45,-2.48 10.05,0.53 2.6,3 2.39,7.11 -0.94,9.99 -3.33,2.88 -7.45,2.53 -10.05,-0.47zm37.1 32.4l-3.03 1.03c1.58,-2.39 1.75,-5.41 0.76,-8.33 -1.91,-5.65 -7.17,-8.65 -12.82,-6.73 -5.65,1.91 -8.04,7.5 -6.13,13.15 0.95,2.81 2.81,5.02 5.42,6.03l-1.55 0.52c-4.43,1.5 -7.29,0.12 -8.85,-4.5 -0.98,-2.88 -0.94,-6.06 -0,-8.4l-3.31 -0.77c-1.2,2.79 -0.97,6.75 0.24,10.33 2.25,6.65 6.58,9.09 13.48,6.76l16.91 -5.73 -1.14 -3.36zm-17.97 -1.53c-1.34,-3.95 0.33,-7.65 4.1,-8.92 3.81,-1.29 7.3,0.66 8.64,4.61 1.32,3.91 -0.27,7.58 -4.08,8.87 -3.77,1.27 -7.34,-0.64 -8.66,-4.56zm17.81 20.07l3.44 -0.44 -0.45 -3.56 -20.5 2.61 0.47 3.71 10.21 -1.3c4.49,-0.57 7.24,1.6 7.74,5.58 0.03,0.27 0.07,0.54 0.07,0.85l3.6 -0.46c-0.46,-3.6 -2.02,-5.99 -4.59,-7zm10.65 34.35l0.6 -4.72 -4.36 -5.9 -0.44 3.48 4.2 7.14zm-7.89 -1.91l-3.09 -0.39c2.42,-1.42 3.83,-3.84 4.2,-6.74 0.76,-6 -2.86,-10.9 -9.12,-11.69 -6.27,-0.8 -11.04,3.04 -11.8,9.03 -0.38,3.02 0.44,5.79 2.55,7.75l-3.25 -0.41 -0.45 3.56 20.5 2.61 0.47 -3.71zm-16.61 -9.07c0.5,-3.95 3.74,-6.56 8.11,-6 4.37,0.56 6.81,3.89 6.31,7.84 -0.5,3.9 -3.7,6.52 -8.07,5.97 -4.37,-0.56 -6.85,-3.9 -6.36,-7.8zm10.06 43.11c-0.54,1.38 0.09,2.76 1.39,3.27 1.23,0.49 2.61,-0.14 3.14,-1.48 0.53,-1.34 -0.09,-2.76 -1.36,-3.26 -1.27,-0.5 -2.65,0.13 -3.18,1.47zm4.68 -17.72l-20.93 -8.25 -1.37 3.48 16.36 6.45 -2.19 5.55 2.87 1.13 2.22 -5.62 1.67 0.66c2.21,0.87 2.96,2.38 2.14,4.45 -0.4,1.02 -1.13,1.81 -1.96,2.33l2.23 2.1c1.15,-0.68 2.08,-1.99 2.67,-3.47 1.62,-4.1 0.04,-7.32 -3.7,-8.79zm-26.92 6.95l-1.37 3.48 19.22 7.58 1.37 -3.48 -19.22 -7.58zm-11.25 16.57c-2.29,2.91 -2.96,6.3 -1.71,9.37l3.17 -1.13c-0.77,-2.3 -0.26,-4.47 1.14,-6.25 2.51,-3.19 6.59,-3.84 10.12,-1.07 3.46,2.72 3.82,6.87 1.32,10.06 -1.4,1.78 -3.39,2.79 -5.8,2.58l-0.32 3.37c3.28,0.49 6.38,-0.99 8.67,-3.9 3.93,-5 3.31,-11.28 -1.53,-15.09 -4.84,-3.81 -11.13,-2.94 -15.05,2.05zm-15.48 15.3c-4.87,3.83 -5.71,10.09 -1.9,14.93 3.81,4.84 10.06,5.48 14.93,1.65 4.87,-3.83 5.76,-10.08 1.95,-14.92 -3.81,-4.84 -10.11,-5.49 -14.99,-1.66zm2.02 2.58c3.13,-2.46 7.27,-2.05 9.99,1.42 2.72,3.46 2.12,7.56 -1.01,10.01 -3.13,2.46 -7.21,2.05 -9.94,-1.41 -2.72,-3.47 -2.18,-7.56 0.95,-10.02z"/>
 </g>
</svg>
