<?xml version="1.0" encoding="UTF-8"?>
<!DOCTYPE svg PUBLIC "-//W3C//DTD SVG 1.1//EN" "http://www.w3.org/Graphics/SVG/1.1/DTD/svg11.dtd">
<!-- Creator: CorelDRAW 2020 (64-Bit) -->
<svg xmlns="http://www.w3.org/2000/svg" xml:space="preserve" width="16.6608mm" height="16.6608mm" version="1.1" style="shape-rendering:geometricPrecision; text-rendering:geometricPrecision; image-rendering:optimizeQuality; fill-rule:evenodd; clip-rule:evenodd"
viewBox="0 0 67.73 67.73"
 xmlns:xlink="http://www.w3.org/1999/xlink"
 xmlns:xodm="http://www.corel.com/coreldraw/odm/2003">
 <defs>
  <style type="text/css">
   <![CDATA[
    .fil1 {fill:#9B81B8}
    .fil0 {fill:#98D3BD;fill-rule:nonzero}
   ]]>
  </style>
 </defs>
 <g id="Capa_x0020_1">
  <metadata id="CorelCorpID_0Corel-Layer"/>
  <path class="fil0" d="M12.22 55.22c3.67,1.31 7.59,-0.2 9.3,-2.49 -1.51,-1.37 -1.9,-5.5 -1.83,-10.74 0,-13.16 6.94,-26.83 12.76,-25.53 6.21,1.39 -0.41,26.13 5.57,36.41 7.78,13.37 31.53,9.62 29.51,-4.42 -3.83,1.86 -11.63,2.04 -16.43,-0.91 -11.98,-7.38 7.14,-42.79 -12.17,-43.46 -7.15,-0.25 -13.94,7.59 -17.41,14.2 1.51,-9.56 0.07,-14.6 -3.47,-15.91 -4.58,-1.7 -10.6,2.42 -9.23,7.66 2.03,0.79 3.14,2.75 0.85,17.87 -3.01,20.1 -2.95,25.33 2.55,27.3z"/>
  <g id="_2817261940192">
   <path class="fil1" d="M43.64 66.3c1.34,-0.4 2.65,-0.89 3.92,-1.45 0.17,-0.08 0.34,-0.15 0.51,-0.23 -5.38,-1.24 -10.46,-4.38 -13.56,-9.71 -3.54,-6.09 -3.38,-15.41 -3.24,-23.57 0.1,-5.65 0.4,-10.47 0.32,-10.89 -0.66,0.08 -1.68,1.22 -2.84,2.99 -1.7,2.61 -3.17,6.27 -4.08,10.32 -0.58,2.62 -0.92,5.42 -0.92,8.23l-0.02 0 0 0.05c-0.03,2.38 0.04,4.5 0.3,6.18 0.14,0.95 0.21,1.5 0.22,1.51l-0 0c1.52,1.38 1.78,3.72 0.53,5.41 -1.43,1.92 -3.75,3.47 -6.39,4.18 -2.15,0.58 -4.57,0.63 -6.94,-0.09 2.79,2.47 5.99,4.49 9.48,5.93 3.99,1.65 8.36,2.56 12.95,2.56 1.69,0 3.34,-0.12 4.95,-0.36 1.65,-0.24 3.26,-0.6 4.82,-1.07zm-12.07 -45.88c-0.03,-0.01 -0.02,-0 0,0zm-24.8 -6.87c-0.82,1.09 -1.57,2.23 -2.25,3.41 -0.94,1.63 -1.76,3.36 -2.42,5.17 -0.68,1.85 -1.21,3.78 -1.56,5.76 -0.34,1.94 -0.53,3.93 -0.53,5.98 0,4.59 0.91,8.97 2.56,12.95 0.37,0.88 0.77,1.75 1.2,2.59 -0.03,-0.24 -0.05,-0.48 -0.07,-0.72 -0.35,-4.42 0.39,-10.96 1.93,-21.24l0.02 -0.13c1.09,-7.23 1.39,-11.18 1.18,-13.31 -0.03,-0.3 0.64,-0.12 0.6,-0.15 -0.23,-0.08 -0.45,-0.19 -0.66,-0.31z"/>
   <path class="fil1" d="M57.81 9.92c-2.87,-2.87 -6.25,-5.22 -9.98,-6.92 3.75,3.3 4.52,9.05 4.29,15.61 -0.09,2.69 -0.36,5.45 -0.63,8.21 -0.74,7.65 -1.49,15.31 1.73,17.29 1.62,1 3.84,1.51 6.09,1.63 2.51,0.14 4.86,-0.2 6.33,-0.87 0.1,-0.05 0.21,-0.1 0.32,-0.15 0.15,-0.44 0.29,-0.89 0.42,-1.33 0.29,-0.99 0.54,-2.01 0.74,-3.05 0.21,-1.06 0.36,-2.14 0.46,-3.21 0.1,-1.06 0.15,-2.14 0.15,-3.26 0,-4.59 -0.91,-8.97 -2.56,-12.95 -1.72,-4.14 -4.23,-7.87 -7.36,-10.99zm-20.89 -9.78c-1.01,-0.09 -2.03,-0.14 -3.06,-0.14 -1.15,0 -2.27,0.06 -3.35,0.16 -1.11,0.11 -2.21,0.27 -3.31,0.49 -0.98,0.2 -1.94,0.43 -2.85,0.7 -0.28,0.08 -0.55,0.16 -0.82,0.25 0.91,1.2 1.6,2.71 2.05,4.52 0.56,-0.54 1.15,-1.06 1.74,-1.54 2.89,-2.36 6.15,-4.04 9.61,-4.45z"/>
  </g>
 </g>
</svg>
