<svg width="153" height="182" viewBox="0 0 153 182" fill="none" xmlns="http://www.w3.org/2000/svg">
<path d="M37.96 175.44C50.02 172.74 60.1 160.86 64.96 152.22C72.34 154.2 78.46 157.44 89.98 162.48C134.26 181.92 152.08 158.52 148.66 134.76C132.28 141.06 101.68 131.88 71.08 129C74.86 96.42 65.32 58.26 74.14 47.46C77.02 44.04 80.62 43.68 82.78 47.64C99.16 27.3 80.62 0.839998 53.98 13.08C16.18 30.54 47.68 87.96 50.02 127.74C37.42 127.74 25.72 130.8 17.44 137.82C0.519999 152.22 12.94 181.02 37.96 175.44ZM34.72 152.22C37.96 150.06 44.8 148.44 49.3 148.44C47.5 153.3 43.36 157.62 37.96 160.14C31.66 163.02 28.78 156.36 34.72 152.22Z" fill="#98D3BD"/>
</svg>
